<?xml version="1.0" encoding="iso-8859-1"?>
<!-- Generator: Adobe Illustrator 18.1.1, SVG Export Plug-In . SVG Version: 6.00 Build 0)  -->
<svg version="1.1" id="Capa_1" xmlns="http://www.w3.org/2000/svg" xmlns:xlink="http://www.w3.org/1999/xlink" x="0px" y="0px"
	 viewBox="0 0 14.785 14.785" style="enable-background:new 0 0 14.785 14.785;" xml:space="preserve">
<g>
	<g>
		<polygon style="fill:#030104;" points="11.047,4.544 11.047,5.303 14.027,5.303 14.027,9.482 11.047,9.482 11.047,10.24 
			14.785,10.24 14.785,4.544 		"/>
		<polygon style="fill:#030104;" points="8.131,9.482 0.758,9.482 0.758,5.303 8.131,5.303 8.131,4.544 0,4.544 0,10.24 
			8.131,10.24 		"/>
		<path style="fill:#030104;" d="M10.138,11.826c-0.031-0.032-0.053-0.068-0.071-0.115V3.227l-0.002-0.058
			c0.015-0.074,0.045-0.135,0.094-0.186C10.304,2.832,10.586,2.8,10.797,2.8h0.395V1.813h-0.395c-0.506,0-0.914,0.122-1.215,0.362
			C9.279,1.918,8.861,1.788,8.339,1.788H7.944v0.988h0.395c0.21,0,0.492,0.031,0.637,0.183C9.008,2.991,9.032,3.03,9.048,3.075
			v8.503c0,0.005-0.001,0.143-0.103,0.248c-0.146,0.152-0.428,0.185-0.639,0.185H7.911v0.986h0.395c0.518,0,0.933-0.128,1.235-0.379
			c0.303,0.253,0.717,0.379,1.234,0.379h0.396v-0.986h-0.396C10.564,12.01,10.283,11.978,10.138,11.826z"/>
	</g>
</g>
<g>
</g>
<g>
</g>
<g>
</g>
<g>
</g>
<g>
</g>
<g>
</g>
<g>
</g>
<g>
</g>
<g>
</g>
<g>
</g>
<g>
</g>
<g>
</g>
<g>
</g>
<g>
</g>
<g>
</g>
</svg>
